HIERARCHY
ROOT Hips
{
    OFFSET 0.000000 0.000000 0.000000
    CHANNELS 6 Xposition Yposition Zposition Zrotation Xrotation Yrotation
    JOINT Spine
    {
        OFFSET -0.000000 7.236184 0.000000
        CHANNELS 3 Zrotation Xrotation Yrotation
        JOINT Spine1
        {
            OFFSET -0.000000 20.420147 0.000000
            CHANNELS 3 Zrotation Xrotation Yrotation
            JOINT Neck
            {
                OFFSET -0.000000 20.336288 1.848754
                CHANNELS 3 Zrotation Xrotation Yrotation
                JOINT Head
                {
                    OFFSET -0.000000 12.354461 -1.764923
                    CHANNELS 3 Zrotation Xrotation Yrotation
                    End Site
                    {
                        OFFSET -0.000000 22.061537 0.000000
                    }
                }
            }
            JOINT LeftShoulder
            {
                OFFSET 3.573296 18.396038 -0.314103
                CHANNELS 3 Zrotation Xrotation Yrotation
                JOINT LeftArm
                {
                    OFFSET 10.880760 0.000000 0.000000
                    CHANNELS 3 Zrotation Xrotation Yrotation
                    JOINT LeftForeArm
                    {
                        OFFSET 27.185530 0.000000 0.000000
                        CHANNELS 3 Zrotation Xrotation Yrotation
                        JOINT LeftHand
                        {
                            OFFSET 27.825975 0.000000 0.000000
                            CHANNELS 3 Zrotation Xrotation Yrotation
                            End Site
                            {
                                OFFSET 13.236923 0.000000 0.000000
                            }
                        }
                    }
                }
            }
            JOINT RightShoulder
            {
                OFFSET -3.474926 18.396038 -0.314103
                CHANNELS 3 Zrotation Xrotation Yrotation
                JOINT RightArm
                {
                    OFFSET -10.880760 0.000000 0.000000
                    CHANNELS 3 Zrotation Xrotation Yrotation
                    JOINT RightForeArm
                    {
                        OFFSET -27.185530 0.000000 0.000000
                        CHANNELS 3 Zrotation Xrotation Yrotation
                        JOINT RightHand
                        {
                            OFFSET -27.825975 0.000000 0.000000
                            CHANNELS 3 Zrotation Xrotation Yrotation
                            End Site
                            {
                                OFFSET -13.236923 0.000000 0.000000
                            }
                        }
                    }
                }
            }
        }
    }
    JOINT LeftUpLeg
    {
        OFFSET 8.824615 0.000000 0.000000
        CHANNELS 3 Zrotation Xrotation Yrotation
        JOINT LeftLeg
        {
            OFFSET -0.000000 -35.111282 0.000000
            CHANNELS 3 Zrotation Xrotation Yrotation
            JOINT LeftFoot
            {
                OFFSET -0.000000 -42.324711 0.000000
                CHANNELS 3 Zrotation Xrotation Yrotation
                JOINT LeftToeBase
                {
                    OFFSET -0.000000 -5.735999 13.236923
                    CHANNELS 3 Zrotation Xrotation Yrotation
                    End Site
                    {
                        OFFSET -0.000000 0.000000 3.529846
                    }
                }
            }
        }
    }
    JOINT RightUpLeg
    {
        OFFSET -8.824615 0.000000 0.000000
        CHANNELS 3 Zrotation Xrotation Yrotation
        JOINT RightLeg
        {
            OFFSET -0.000000 -35.111282 0.000000
            CHANNELS 3 Zrotation Xrotation Yrotation
            JOINT RightFoot
            {
                OFFSET -0.000000 -42.324711 0.000000
                CHANNELS 3 Zrotation Xrotation Yrotation
                JOINT RightToeBase
                {
                    OFFSET -0.000000 -5.735999 13.236923
                    CHANNELS 3 Zrotation Xrotation Yrotation
                    End Site
                    {
                        OFFSET -0.000000 0.000000 3.529846
                    }
                }
            }
        }
    }
}
MOTION
Frames:    12
Frame Time:    0.008333
-0.782504    82.691406    94.908951    0.302184    -10.578739    -172.887939    3.881742    -11.797974    2.148078    -5.323968    3.810559    1.924069    13.927162    18.038078    -13.977682    6.269490    13.871593    -14.207547    3.301063    17.185940    -4.897431    -57.566685    36.434155    -26.727736    -1.360059    -5.002804    -12.775363    16.015591    -4.588152    4.038346    -11.308289    0.337105    0.684794    46.478531    -17.649723    50.580906    -39.897331    -29.586380    45.860092    -46.824856    -9.750137    -7.984735    1.945974    -12.904015    -1.767140    0.558073    13.946844    -3.257003    0.701387    -10.913383    -8.407464    -1.506554    0.524609    1.668373    -2.002214    -4.313844    -1.923470    11.462451    7.826498    -13.372524    0.000000    0.000000    0.000000    0.000000    0.000000    0.000000    
-0.780640    82.689262    94.874283    0.303623    -10.563659    -172.785660    3.858765    -11.823589    2.130157    -5.311417    3.805843    1.907017    13.970728    18.081827    -14.004164    6.277280    13.789371    -14.223743    3.309338    17.182186    -4.896271    -57.582188    36.469910    -26.716133    -1.342831    -5.012139    -12.921279    16.019320    -4.601273    4.009083    -11.274280    0.396897    0.635530    46.129303    -17.421007    50.312679    -39.945667    -29.732233    46.379761    -46.849998    -9.657496    -8.001862    1.955147    -12.874043    -1.765575    0.539896    13.933676    -3.282925    0.668586    -10.915654    -8.470445    -1.471304    0.536977    1.629302    -2.004263    -4.271735    -1.956070    11.472975    7.838212    -13.397695    0.000000    0.000000    0.000000    0.000000    0.000000    0.000000    
-0.779524    82.686844    94.838821    0.303531    -10.547257    -172.690857    3.837346    -11.851547    2.111915    -5.298264    3.807110    1.889663    14.005680    18.118469    -14.022078    6.279960    13.701638    -14.231833    3.314053    17.175964    -4.884163    -57.595215    36.513390    -26.704969    -1.326230    -5.011986    -13.065358    16.017435    -4.605060    3.980189    -11.248257    0.460361    0.589284    45.587425    -17.067385    49.946991    -40.075077    -29.841837    46.927307    -46.901951    -9.498403    -7.947133    1.965194    -12.841162    -1.762466    0.519876    13.920444    -3.301835    0.631368    -10.918266    -8.535461    -1.433819    0.549952    1.587755    -2.007783    -4.229774    -1.987733    11.483209    7.853100    -13.419892    0.000000    0.000000    0.000000    0.000000    0.000000    0.000000    
-0.779074    82.684204    94.803162    0.301925    -10.529966    -172.605453    3.818111    -11.881212    2.094644    -5.285948    3.813723    1.873303    14.029761    18.146053    -14.031822    6.280574    13.610654    -14.232636    3.315049    17.167269    -4.861749    -57.604847    36.562527    -26.694393    -1.310224    -5.000315    -13.204082    16.011276    -4.597257    3.952441    -11.230180    0.525220    0.547916    44.886417    -16.607952    49.503059    -40.287090    -29.915592    47.470852    -46.977722    -9.278497    -7.834839    1.976088    -12.806159    -1.757712    0.498225    13.907477    -3.312728    0.590168    -10.921053    -8.602084    -1.394775    0.563117    1.544484    -2.012790    -4.188429    -2.018129    11.493149    7.870304    -13.438272    0.000000    0.000000    0.000000    0.000000    0.000000    0.000000    
-0.779126    82.681343    94.766655    0.298993    -10.511636    -172.527512    3.800909    -11.912928    2.079027    -5.275510    3.824843    1.858590    14.042855    18.163904    -14.034606    6.281209    13.515411    -14.227443    3.312706    17.156025    -4.829174    -57.610657    36.617203    -26.684547    -1.294023    -4.975496    -13.338957    16.002409    -4.576212    3.925410    -11.218508    0.591915    0.511521    44.045940    -16.053259    48.989712    -40.585907    -29.957520    47.997574    -47.075821    -8.998033    -7.679528    1.988327    -12.768762    -1.750885    0.474651    13.894794    -3.315881    0.543702    -10.924036    -8.672210    -1.353328    0.576297    1.498555    -2.019216    -4.146592    -2.048189    11.503078    7.889312    -13.453090    0.000000    0.000000    0.000000    0.000000    0.000000    0.000000    
-0.779551    82.678368    94.730125    0.294835    -10.492924    -172.458267    3.786093    -11.945772    2.066373    -5.268537    3.839171    1.846843    14.044312    18.169849    -14.031373    6.283456    13.418640    -14.217651    3.307397    17.142500    -4.788121    -57.611736    36.675121    -26.675625    -1.277521    -4.936938    -13.466049    15.992990    -4.541056    3.899762    -11.212270    0.657923    0.481567    43.119118    -15.436457    48.435181    -40.962700    -29.968946    48.473129    -47.191959    -8.668587    -7.501158    2.001647    -12.730176    -1.741747    0.449767    13.882576    -3.311383    0.492778    -10.926844    -8.745108    -1.310480    0.589910    1.451074    -2.027031    -4.104798    -2.077745    11.512929    7.908620    -13.463934    0.000000    0.000000    0.000000    0.000000    0.000000    0.000000    
-0.780149    82.675323    94.693390    0.289798    -10.473742    -172.396194    3.773544    -11.979228    2.057386    -5.266075    3.855226    1.838677    14.033367    18.163071    -14.023398    6.290165    13.320460    -14.204692    3.299640    17.126665    -4.739953    -57.608307    36.734703    -26.667028    -1.260310    -4.883863    -13.585084    15.985385    -4.490911    3.875521    -11.209670    0.722588    0.458451    42.143215    -14.782232    47.856182    -41.408524    -29.953526    48.880699    -47.323940    -8.298705    -7.317131    2.016527    -12.690441    -1.729986    0.423487    13.870823    -3.300310    0.437010    -10.929342    -8.821481    -1.266009    0.603205    1.401800    -2.036004    -4.062052    -2.107262    11.523076    7.927117    -13.471010    0.000000    0.000000    0.000000    0.000000    0.000000    0.000000    
-0.780750    82.672333    94.656563    0.284056    -10.454668    -172.340042    3.762856    -12.013153    2.052701    -5.269152    3.871458    1.834843    14.010735    18.142218    -14.011966    6.301752    13.221601    -14.190082    3.290017    17.108685    -4.686356    -57.600380    36.794590    -26.658180    -1.241719    -4.816279    -13.695000    15.982291    -4.425550    3.852948    -11.208462    0.785191    0.442271    41.161339    -14.121373    47.272259    -41.905979    -29.914505    49.203873    -47.469521    -7.902098    -7.144038    2.032858    -12.650494    -1.715293    0.396138    13.859544    -3.283487    0.376378    -10.931199    -8.902068    -1.220125    0.616455    1.350964    -2.046026    -4.018372    -2.137548    11.533421    7.943756    -13.475153    0.000000    0.000000    0.000000    0.000000    0.000000    0.000000    
-0.781165    82.669518    94.620132    0.277958    -10.436151    -172.288742    3.753782    -12.046706    2.052802    -5.278670    3.886233    1.835789    13.976835    18.105978    -13.998440    6.319386    13.124317    -14.175470    3.279650    17.089178    -4.629509    -57.588261    36.852135    -26.649212    -1.221815    -4.735095    -13.793461    15.986329    -4.345763    3.832309    -11.206395    0.844198    0.432567    40.225605    -13.492846    46.707520    -42.425652    -29.855692    49.428928    -47.625076    -7.499780    -6.997823    2.050559    -12.611347    -1.697844    0.368149    13.848851    -3.262430    0.311763    -10.932137    -8.986231    -1.173509    0.629622    1.299320    -2.056917    -3.973620    -2.168605    11.544280    7.956964    -13.476634    0.000000    0.000000    0.000000    0.000000    0.000000    0.000000    
-0.781217    82.666931    94.583679    0.271770    -10.418207    -172.239853    3.745497    -12.079993    2.057837    -5.294858    3.898236    1.841733    13.931807    18.053616    -13.983902    6.343663    13.027451    -14.161942    3.268911    17.068077    -4.571043    -57.572819    36.906082    -26.638632    -1.199885    -4.640141    -13.880928    16.000168    -4.251239    3.813215    -11.201081    0.900043    0.428565    39.361946    -12.920140    46.170334    -42.945591    -29.779818    49.555084    -47.790470    -7.105787    -6.886459    2.069835    -12.573070    -1.677362    0.339542    13.838517    -3.238100    0.242545    -10.931878    -9.075583    -1.125814    0.642336    1.246483    -2.068547    -3.926765    -2.201265    11.555961    7.965722    -13.476267    0.000000    0.000000    0.000000    0.000000    0.000000    0.000000    
-0.780721    82.664711    94.547638    0.266022    -10.401366    -172.191956    3.737689    -12.112340    2.067803    -5.318019    3.905899    1.852553    13.877354    17.984690    -13.969462    6.373474    12.932569    -14.150803    3.258962    17.046175    -4.513258    -57.555180    36.954052    -26.626144    -1.175648    -4.533294    -13.955489    16.026304    -4.143661    3.796195    -11.189911    0.951505    0.429131    38.612198    -12.438465    45.679314    -43.430511    -29.690821    49.581085    -47.961651    -6.743430    -6.817957    2.090530    -12.536880    -1.654048    0.311071    13.828773    -3.212146    0.169768    -10.930241    -9.169567    -1.077841    0.654586    1.193343    -2.080387    -3.877988    -2.235526    11.568436    7.968740    -13.475121    0.000000    0.000000    0.000000    0.000000    0.000000    0.000000    
-0.779540    82.662918    94.511978    0.260995    -10.386221    -172.143066    3.729513    -12.143990    2.082355    -5.347893    3.908009    1.868086    13.814198    17.898714    -13.955917    6.408094    12.839585    -14.142850    3.250456    17.023937    -4.457807    -57.536453    36.994072    -26.610781    -1.149015    -4.415478    -14.016994    16.067068    -4.023892    3.781231    -11.170929    0.998434    0.432731    37.999508    -12.070700    45.242931    -43.853638    -29.591616    49.513100    -48.136345    -6.428984    -6.794667    2.112631    -12.503686    -1.628400    0.282686    13.819623    -3.185232    0.093627    -10.927030    -9.268803    -1.029706    0.666313    1.140027    -2.092359    -3.827256    -2.271691    11.582068    7.965240    -13.474001    0.000000    0.000000    0.000000    0.000000    0.000000    0.000000    
